<mxfile host="app.diagrams.net" agent="Mozilla/5.0 (Windows NT 10.0; Win64; x64) AppleWebKit/537.36 (KHTML, like Gecko) Chrome/131.0.0.0 Safari/537.36" version="26.0.4">
  <diagram name="Page-1" id="uHA_pvlAWlOeQYaqYsMa">
    <mxGraphModel dx="842" dy="508" grid="1" gridSize="10" guides="1" tooltips="1" connect="1" arrows="1" fold="1" page="1" pageScale="1" pageWidth="827" pageHeight="1169" math="0" shadow="0">
      <root>
        <mxCell id="0" />
        <mxCell id="1" parent="0" />
        <mxCell id="ORemUjV-_kUPUwKcstXI-2" value="provider_account" style="html=1;whiteSpace=wrap;" vertex="1" parent="1">
          <mxGeometry x="140" y="100" width="110" height="50" as="geometry" />
        </mxCell>
        <mxCell id="ORemUjV-_kUPUwKcstXI-3" value="monitored_targets" style="html=1;whiteSpace=wrap;" vertex="1" parent="1">
          <mxGeometry x="140" y="320" width="110" height="50" as="geometry" />
        </mxCell>
        <mxCell id="ORemUjV-_kUPUwKcstXI-4" value="signal" style="html=1;whiteSpace=wrap;" vertex="1" parent="1">
          <mxGeometry x="430" y="325" width="100" height="40" as="geometry" />
        </mxCell>
        <mxCell id="ORemUjV-_kUPUwKcstXI-6" value="avoir" style="ellipse;whiteSpace=wrap;html=1;" vertex="1" parent="1">
          <mxGeometry x="150" y="210" width="90" height="50" as="geometry" />
        </mxCell>
        <mxCell id="ORemUjV-_kUPUwKcstXI-7" value="" style="endArrow=none;html=1;rounded=0;entryX=0.5;entryY=1;entryDx=0;entryDy=0;exitX=0.5;exitY=0;exitDx=0;exitDy=0;" edge="1" parent="1" source="ORemUjV-_kUPUwKcstXI-6" target="ORemUjV-_kUPUwKcstXI-2">
          <mxGeometry width="50" height="50" relative="1" as="geometry">
            <mxPoint x="90" y="260" as="sourcePoint" />
            <mxPoint x="140" y="210" as="targetPoint" />
          </mxGeometry>
        </mxCell>
        <mxCell id="ORemUjV-_kUPUwKcstXI-11" value="1, 1" style="edgeLabel;html=1;align=center;verticalAlign=middle;resizable=0;points=[];" vertex="1" connectable="0" parent="ORemUjV-_kUPUwKcstXI-7">
          <mxGeometry x="0.4307" relative="1" as="geometry">
            <mxPoint as="offset" />
          </mxGeometry>
        </mxCell>
        <mxCell id="ORemUjV-_kUPUwKcstXI-9" value="" style="endArrow=none;html=1;rounded=0;entryX=0.5;entryY=1;entryDx=0;entryDy=0;exitX=0.5;exitY=0;exitDx=0;exitDy=0;" edge="1" parent="1" source="ORemUjV-_kUPUwKcstXI-3" target="ORemUjV-_kUPUwKcstXI-6">
          <mxGeometry width="50" height="50" relative="1" as="geometry">
            <mxPoint x="110" y="280" as="sourcePoint" />
            <mxPoint x="160" y="230" as="targetPoint" />
          </mxGeometry>
        </mxCell>
        <mxCell id="ORemUjV-_kUPUwKcstXI-10" value="*" style="edgeLabel;html=1;align=center;verticalAlign=middle;resizable=0;points=[];" vertex="1" connectable="0" parent="ORemUjV-_kUPUwKcstXI-9">
          <mxGeometry x="-0.3896" relative="1" as="geometry">
            <mxPoint as="offset" />
          </mxGeometry>
        </mxCell>
        <mxCell id="ORemUjV-_kUPUwKcstXI-12" value="produire" style="ellipse;whiteSpace=wrap;html=1;" vertex="1" parent="1">
          <mxGeometry x="310" y="320" width="80" height="50" as="geometry" />
        </mxCell>
        <mxCell id="ORemUjV-_kUPUwKcstXI-13" value="" style="endArrow=none;html=1;rounded=0;entryX=0;entryY=0.5;entryDx=0;entryDy=0;exitX=1;exitY=0.5;exitDx=0;exitDy=0;" edge="1" parent="1" source="ORemUjV-_kUPUwKcstXI-12" target="ORemUjV-_kUPUwKcstXI-4">
          <mxGeometry width="50" height="50" relative="1" as="geometry">
            <mxPoint x="345" y="260" as="sourcePoint" />
            <mxPoint x="395" y="210" as="targetPoint" />
          </mxGeometry>
        </mxCell>
        <mxCell id="ORemUjV-_kUPUwKcstXI-15" value="0, N" style="edgeLabel;html=1;align=center;verticalAlign=middle;resizable=0;points=[];" vertex="1" connectable="0" parent="ORemUjV-_kUPUwKcstXI-13">
          <mxGeometry x="0.3629" relative="1" as="geometry">
            <mxPoint as="offset" />
          </mxGeometry>
        </mxCell>
        <mxCell id="ORemUjV-_kUPUwKcstXI-14" value="" style="endArrow=none;html=1;rounded=0;entryX=0;entryY=0.5;entryDx=0;entryDy=0;exitX=1;exitY=0.5;exitDx=0;exitDy=0;" edge="1" parent="1" source="ORemUjV-_kUPUwKcstXI-3" target="ORemUjV-_kUPUwKcstXI-12">
          <mxGeometry width="50" height="50" relative="1" as="geometry">
            <mxPoint x="345" y="260" as="sourcePoint" />
            <mxPoint x="395" y="210" as="targetPoint" />
          </mxGeometry>
        </mxCell>
        <mxCell id="ORemUjV-_kUPUwKcstXI-16" value="1, 1" style="edgeLabel;html=1;align=center;verticalAlign=middle;resizable=0;points=[];" vertex="1" connectable="0" parent="ORemUjV-_kUPUwKcstXI-14">
          <mxGeometry x="-0.4269" y="-1" relative="1" as="geometry">
            <mxPoint as="offset" />
          </mxGeometry>
        </mxCell>
        <mxCell id="ORemUjV-_kUPUwKcstXI-17" value="trader_agents" style="html=1;whiteSpace=wrap;" vertex="1" parent="1">
          <mxGeometry x="425" y="100" width="110" height="50" as="geometry" />
        </mxCell>
        <mxCell id="ORemUjV-_kUPUwKcstXI-18" value="Trader" style="ellipse;whiteSpace=wrap;html=1;" vertex="1" parent="1">
          <mxGeometry x="447.5" y="215" width="65" height="40" as="geometry" />
        </mxCell>
        <mxCell id="ORemUjV-_kUPUwKcstXI-19" value="" style="endArrow=none;html=1;rounded=0;entryX=0.5;entryY=1;entryDx=0;entryDy=0;exitX=0.5;exitY=0;exitDx=0;exitDy=0;" edge="1" parent="1" source="ORemUjV-_kUPUwKcstXI-4" target="ORemUjV-_kUPUwKcstXI-18">
          <mxGeometry width="50" height="50" relative="1" as="geometry">
            <mxPoint x="389" y="300" as="sourcePoint" />
            <mxPoint x="439" y="250" as="targetPoint" />
          </mxGeometry>
        </mxCell>
        <mxCell id="ORemUjV-_kUPUwKcstXI-21" value="0, N" style="edgeLabel;html=1;align=center;verticalAlign=middle;resizable=0;points=[];" vertex="1" connectable="0" parent="ORemUjV-_kUPUwKcstXI-19">
          <mxGeometry x="0.1638" relative="1" as="geometry">
            <mxPoint as="offset" />
          </mxGeometry>
        </mxCell>
        <mxCell id="ORemUjV-_kUPUwKcstXI-20" value="" style="endArrow=none;html=1;rounded=0;entryX=0.5;entryY=1;entryDx=0;entryDy=0;exitX=0.5;exitY=0;exitDx=0;exitDy=0;" edge="1" parent="1" source="ORemUjV-_kUPUwKcstXI-18" target="ORemUjV-_kUPUwKcstXI-17">
          <mxGeometry width="50" height="50" relative="1" as="geometry">
            <mxPoint x="355" y="270" as="sourcePoint" />
            <mxPoint x="440" y="220" as="targetPoint" />
          </mxGeometry>
        </mxCell>
        <mxCell id="ORemUjV-_kUPUwKcstXI-22" value="0, N" style="edgeLabel;html=1;align=center;verticalAlign=middle;resizable=0;points=[];" vertex="1" connectable="0" parent="ORemUjV-_kUPUwKcstXI-20">
          <mxGeometry x="-0.0889" y="2" relative="1" as="geometry">
            <mxPoint as="offset" />
          </mxGeometry>
        </mxCell>
        <mxCell id="ORemUjV-_kUPUwKcstXI-27" value="user" style="html=1;whiteSpace=wrap;" vertex="1" parent="1">
          <mxGeometry x="285" y="30" width="70" height="30" as="geometry" />
        </mxCell>
        <mxCell id="ORemUjV-_kUPUwKcstXI-28" value="admin" style="html=1;whiteSpace=wrap;" vertex="1" parent="1">
          <mxGeometry x="545" y="30" width="70" height="30" as="geometry" />
        </mxCell>
        <mxCell id="ORemUjV-_kUPUwKcstXI-29" value="avoir" style="ellipse;whiteSpace=wrap;html=1;" vertex="1" parent="1">
          <mxGeometry x="280" y="110" width="50" height="30" as="geometry" />
        </mxCell>
        <mxCell id="ORemUjV-_kUPUwKcstXI-30" value="" style="endArrow=none;html=1;rounded=0;entryX=0.25;entryY=1;entryDx=0;entryDy=0;exitX=0.5;exitY=0;exitDx=0;exitDy=0;" edge="1" parent="1" source="ORemUjV-_kUPUwKcstXI-29" target="ORemUjV-_kUPUwKcstXI-27">
          <mxGeometry width="50" height="50" relative="1" as="geometry">
            <mxPoint x="80" y="100" as="sourcePoint" />
            <mxPoint x="130" y="50" as="targetPoint" />
          </mxGeometry>
        </mxCell>
        <mxCell id="ORemUjV-_kUPUwKcstXI-33" value="1, 1" style="edgeLabel;html=1;align=center;verticalAlign=middle;resizable=0;points=[];" vertex="1" connectable="0" parent="ORemUjV-_kUPUwKcstXI-30">
          <mxGeometry x="0.1157" relative="1" as="geometry">
            <mxPoint as="offset" />
          </mxGeometry>
        </mxCell>
        <mxCell id="ORemUjV-_kUPUwKcstXI-31" value="" style="endArrow=none;html=1;rounded=0;exitX=0;exitY=0.5;exitDx=0;exitDy=0;entryX=1;entryY=0.5;entryDx=0;entryDy=0;" edge="1" parent="1" source="ORemUjV-_kUPUwKcstXI-29" target="ORemUjV-_kUPUwKcstXI-2">
          <mxGeometry width="50" height="50" relative="1" as="geometry">
            <mxPoint x="130" y="90" as="sourcePoint" />
            <mxPoint x="180" y="40" as="targetPoint" />
          </mxGeometry>
        </mxCell>
        <mxCell id="ORemUjV-_kUPUwKcstXI-32" value="0, N" style="edgeLabel;html=1;align=center;verticalAlign=middle;resizable=0;points=[];" vertex="1" connectable="0" parent="ORemUjV-_kUPUwKcstXI-31">
          <mxGeometry x="0.0765" relative="1" as="geometry">
            <mxPoint as="offset" />
          </mxGeometry>
        </mxCell>
        <mxCell id="ORemUjV-_kUPUwKcstXI-34" value="Ãªtre" style="ellipse;whiteSpace=wrap;html=1;" vertex="1" parent="1">
          <mxGeometry x="415" y="30" width="60" height="30" as="geometry" />
        </mxCell>
        <mxCell id="ORemUjV-_kUPUwKcstXI-35" value="" style="endArrow=none;html=1;rounded=0;entryX=0;entryY=0.5;entryDx=0;entryDy=0;exitX=1;exitY=0.5;exitDx=0;exitDy=0;" edge="1" parent="1" source="ORemUjV-_kUPUwKcstXI-27" target="ORemUjV-_kUPUwKcstXI-34">
          <mxGeometry width="50" height="50" relative="1" as="geometry">
            <mxPoint x="385" y="80" as="sourcePoint" />
            <mxPoint x="435" y="30" as="targetPoint" />
          </mxGeometry>
        </mxCell>
        <mxCell id="ORemUjV-_kUPUwKcstXI-36" value="" style="endArrow=none;html=1;rounded=0;entryX=0;entryY=0.5;entryDx=0;entryDy=0;exitX=1;exitY=0.5;exitDx=0;exitDy=0;" edge="1" parent="1" source="ORemUjV-_kUPUwKcstXI-34" target="ORemUjV-_kUPUwKcstXI-28">
          <mxGeometry width="50" height="50" relative="1" as="geometry">
            <mxPoint x="370" y="55" as="sourcePoint" />
            <mxPoint x="425" y="55" as="targetPoint" />
          </mxGeometry>
        </mxCell>
        <mxCell id="ORemUjV-_kUPUwKcstXI-37" value="ModÃ¨le conceptuelle de donnÃ©es" style="text;html=1;whiteSpace=wrap;overflow=hidden;rounded=0;fillColor=#dae8fc;strokeColor=#6c8ebf;align=center;" vertex="1" parent="1">
          <mxGeometry x="260" y="220" width="160" height="40" as="geometry" />
        </mxCell>
        <mxCell id="ORemUjV-_kUPUwKcstXI-38" value="users" style="swimlane;fontStyle=0;childLayout=stackLayout;horizontal=1;startSize=26;fillColor=none;horizontalStack=0;resizeParent=1;resizeParentMax=0;resizeLast=0;collapsible=1;marginBottom=0;whiteSpace=wrap;html=1;" vertex="1" parent="1">
          <mxGeometry x="840" y="72" width="140" height="148" as="geometry" />
        </mxCell>
        <mxCell id="ORemUjV-_kUPUwKcstXI-39" value="&lt;div&gt;id: integer&lt;/div&gt;name: string" style="text;strokeColor=none;fillColor=none;align=left;verticalAlign=top;spacingLeft=4;spacingRight=4;overflow=hidden;rotatable=0;points=[[0,0.5],[1,0.5]];portConstraint=eastwest;whiteSpace=wrap;html=1;" vertex="1" parent="ORemUjV-_kUPUwKcstXI-38">
          <mxGeometry y="26" width="140" height="34" as="geometry" />
        </mxCell>
        <mxCell id="ORemUjV-_kUPUwKcstXI-40" value="email: string" style="text;strokeColor=none;fillColor=none;align=left;verticalAlign=top;spacingLeft=4;spacingRight=4;overflow=hidden;rotatable=0;points=[[0,0.5],[1,0.5]];portConstraint=eastwest;whiteSpace=wrap;html=1;" vertex="1" parent="ORemUjV-_kUPUwKcstXI-38">
          <mxGeometry y="60" width="140" height="26" as="geometry" />
        </mxCell>
        <mxCell id="ORemUjV-_kUPUwKcstXI-41" value="password: string&lt;div&gt;created_at: timetamps&lt;br&gt;updated_at: timetamps&lt;/div&gt;" style="text;strokeColor=none;fillColor=none;align=left;verticalAlign=top;spacingLeft=4;spacingRight=4;overflow=hidden;rotatable=0;points=[[0,0.5],[1,0.5]];portConstraint=eastwest;whiteSpace=wrap;html=1;" vertex="1" parent="ORemUjV-_kUPUwKcstXI-38">
          <mxGeometry y="86" width="140" height="62" as="geometry" />
        </mxCell>
        <mxCell id="ORemUjV-_kUPUwKcstXI-43" value="admins" style="swimlane;fontStyle=0;childLayout=stackLayout;horizontal=1;startSize=26;fillColor=none;horizontalStack=0;resizeParent=1;resizeParentMax=0;resizeLast=0;collapsible=1;marginBottom=0;whiteSpace=wrap;html=1;" vertex="1" parent="1">
          <mxGeometry x="987" y="72" width="140" height="52" as="geometry" />
        </mxCell>
        <mxCell id="ORemUjV-_kUPUwKcstXI-44" value="#user_id: initeger" style="text;strokeColor=none;fillColor=none;align=left;verticalAlign=top;spacingLeft=4;spacingRight=4;overflow=hidden;rotatable=0;points=[[0,0.5],[1,0.5]];portConstraint=eastwest;whiteSpace=wrap;html=1;" vertex="1" parent="ORemUjV-_kUPUwKcstXI-43">
          <mxGeometry y="26" width="140" height="26" as="geometry" />
        </mxCell>
        <mxCell id="ORemUjV-_kUPUwKcstXI-47" value="provider_accounts" style="swimlane;fontStyle=0;childLayout=stackLayout;horizontal=1;startSize=26;fillColor=none;horizontalStack=0;resizeParent=1;resizeParentMax=0;resizeLast=0;collapsible=1;marginBottom=0;whiteSpace=wrap;html=1;" vertex="1" parent="1">
          <mxGeometry x="840" y="230" width="140" height="130" as="geometry" />
        </mxCell>
        <mxCell id="ORemUjV-_kUPUwKcstXI-48" value="&lt;div&gt;id: integer&lt;/div&gt;#user_id&lt;div&gt;plateform_name: string&lt;br&gt;credentials: JSON&lt;br&gt;created_at: timetamps&lt;br&gt;updated_at: timetamps&lt;/div&gt;" style="text;strokeColor=none;fillColor=none;align=left;verticalAlign=top;spacingLeft=4;spacingRight=4;overflow=hidden;rotatable=0;points=[[0,0.5],[1,0.5]];portConstraint=eastwest;whiteSpace=wrap;html=1;" vertex="1" parent="ORemUjV-_kUPUwKcstXI-47">
          <mxGeometry y="26" width="140" height="104" as="geometry" />
        </mxCell>
        <mxCell id="ORemUjV-_kUPUwKcstXI-50" value="monitored_targets" style="swimlane;fontStyle=0;childLayout=stackLayout;horizontal=1;startSize=26;fillColor=none;horizontalStack=0;resizeParent=1;resizeParentMax=0;resizeLast=0;collapsible=1;marginBottom=0;whiteSpace=wrap;html=1;" vertex="1" parent="1">
          <mxGeometry x="987" y="230" width="200" height="210" as="geometry" />
        </mxCell>
        <mxCell id="ORemUjV-_kUPUwKcstXI-51" value="id: integer&lt;div&gt;&lt;br&gt;&lt;/div&gt;&lt;div&gt;#id_provided_account: integer&lt;/div&gt;&lt;div&gt;&lt;br&gt;&lt;/div&gt;&lt;div&gt;target_name: string // nom du chanel Ã  monitorer&lt;/div&gt;&lt;div&gt;&lt;br&gt;&lt;/div&gt;&lt;div&gt;others: JSON // autres donnÃ©es selon le compte&lt;/div&gt;&lt;div&gt;&lt;br&gt;&lt;/div&gt;&lt;div&gt;created_at: timestamp&lt;/div&gt;&lt;div&gt;updated_at: timestamp&lt;/div&gt;&lt;div&gt;&lt;br&gt;&lt;/div&gt;" style="text;strokeColor=none;fillColor=none;align=left;verticalAlign=top;spacingLeft=4;spacingRight=4;overflow=hidden;rotatable=0;points=[[0,0.5],[1,0.5]];portConstraint=eastwest;whiteSpace=wrap;html=1;" vertex="1" parent="ORemUjV-_kUPUwKcstXI-50">
          <mxGeometry y="26" width="200" height="184" as="geometry" />
        </mxCell>
        <mxCell id="ORemUjV-_kUPUwKcstXI-52" value="signal provider" style="text;html=1;align=center;verticalAlign=middle;whiteSpace=wrap;rounded=0;fillColor=#fff2cc;strokeColor=#d6b656;" vertex="1" parent="1">
          <mxGeometry x="640" y="175" width="100" height="40" as="geometry" />
        </mxCell>
        <mxCell id="ORemUjV-_kUPUwKcstXI-53" value="signals" style="swimlane;fontStyle=0;childLayout=stackLayout;horizontal=1;startSize=26;fillColor=none;horizontalStack=0;resizeParent=1;resizeParentMax=0;resizeLast=0;collapsible=1;marginBottom=0;whiteSpace=wrap;html=1;" vertex="1" parent="1">
          <mxGeometry x="1200" y="230" width="190" height="170" as="geometry" />
        </mxCell>
        <mxCell id="ORemUjV-_kUPUwKcstXI-54" value="id: integer&lt;div&gt;&lt;div&gt;#id_monitored_target: integer&lt;/div&gt;&lt;div&gt;pair: string&lt;/div&gt;&lt;div&gt;tp: float&lt;/div&gt;&lt;div&gt;sl float&lt;/div&gt;&lt;div&gt;entry_upper_born: float - NULL&lt;/div&gt;&lt;div&gt;entry_lower_born: float -- NULL&lt;br&gt;&lt;/div&gt;&lt;/div&gt;&lt;div&gt;&lt;br&gt;&lt;/div&gt;&lt;div&gt;&lt;div&gt;created_at: timestamp&lt;/div&gt;&lt;div&gt;updated_at: timestamp&lt;/div&gt;&lt;/div&gt;" style="text;strokeColor=none;fillColor=none;align=left;verticalAlign=top;spacingLeft=4;spacingRight=4;overflow=hidden;rotatable=0;points=[[0,0.5],[1,0.5]];portConstraint=eastwest;whiteSpace=wrap;html=1;" vertex="1" parent="ORemUjV-_kUPUwKcstXI-53">
          <mxGeometry y="26" width="190" height="144" as="geometry" />
        </mxCell>
        <mxCell id="ORemUjV-_kUPUwKcstXI-55" value="trades" style="swimlane;fontStyle=0;childLayout=stackLayout;horizontal=1;startSize=26;fillColor=none;horizontalStack=0;resizeParent=1;resizeParentMax=0;resizeLast=0;collapsible=1;marginBottom=0;whiteSpace=wrap;html=1;" vertex="1" parent="1">
          <mxGeometry x="860" y="530" width="210" height="150" as="geometry" />
        </mxCell>
        <mxCell id="ORemUjV-_kUPUwKcstXI-56" value="id: integer&lt;div&gt;#id_trader_client&lt;br&gt;#id_signal&lt;/div&gt;&lt;div&gt;amount_traded: float&lt;/div&gt;&lt;div&gt;marge: float -- bÃ©nÃ©fice du trade&lt;/div&gt;&lt;div&gt;&lt;br&gt;&lt;/div&gt;&lt;div&gt;&lt;div&gt;created_at: timestamp&lt;/div&gt;&lt;div&gt;updated_at: timestamp&lt;/div&gt;&lt;/div&gt;" style="text;strokeColor=none;fillColor=none;align=left;verticalAlign=top;spacingLeft=4;spacingRight=4;overflow=hidden;rotatable=0;points=[[0,0.5],[1,0.5]];portConstraint=eastwest;whiteSpace=wrap;html=1;" vertex="1" parent="ORemUjV-_kUPUwKcstXI-55">
          <mxGeometry y="26" width="210" height="124" as="geometry" />
        </mxCell>
        <mxCell id="ORemUjV-_kUPUwKcstXI-57" value="Trades: signals exÃ©cutÃ©s jusqu&#39;Ã  la fin ( les contrats en cour d&#39;execution seront gÃ©rÃ©s par les trader_clients" style="text;html=1;align=center;verticalAlign=middle;whiteSpace=wrap;rounded=0;fillColor=#fff2cc;strokeColor=#d6b656;" vertex="1" parent="1">
          <mxGeometry x="850" y="470" width="220" height="45" as="geometry" />
        </mxCell>
        <mxCell id="ORemUjV-_kUPUwKcstXI-58" value="trader_agents" style="swimlane;fontStyle=0;childLayout=stackLayout;horizontal=1;startSize=26;fillColor=none;horizontalStack=0;resizeParent=1;resizeParentMax=0;resizeLast=0;collapsible=1;marginBottom=0;whiteSpace=wrap;html=1;" vertex="1" parent="1">
          <mxGeometry x="1080" y="530" width="140" height="140" as="geometry" />
        </mxCell>
        <mxCell id="ORemUjV-_kUPUwKcstXI-59" value="id: Integer&lt;div&gt;#id_user: Integer&lt;/div&gt;&lt;div&gt;agent_name: string&lt;/div&gt;&lt;div&gt;credentials: JSON&lt;/div&gt;&lt;div&gt;&lt;span style=&quot;background-color: transparent; color: light-dark(rgb(0, 0, 0), rgb(255, 255, 255));&quot;&gt;&amp;nbsp;&lt;/span&gt;&lt;/div&gt;&lt;div&gt;&lt;span style=&quot;background-color: transparent; color: light-dark(rgb(0, 0, 0), rgb(255, 255, 255));&quot;&gt;created_at&lt;/span&gt;&lt;/div&gt;&lt;div&gt;&lt;span style=&quot;background-color: transparent; color: light-dark(rgb(0, 0, 0), rgb(255, 255, 255));&quot;&gt;updated_at&lt;/span&gt;&lt;/div&gt;" style="text;strokeColor=none;fillColor=none;align=left;verticalAlign=top;spacingLeft=4;spacingRight=4;overflow=hidden;rotatable=0;points=[[0,0.5],[1,0.5]];portConstraint=eastwest;whiteSpace=wrap;html=1;" vertex="1" parent="ORemUjV-_kUPUwKcstXI-58">
          <mxGeometry y="26" width="140" height="114" as="geometry" />
        </mxCell>
        <mxCell id="ORemUjV-_kUPUwKcstXI-60" value="" style="endArrow=none;html=1;rounded=0;entryX=0;entryY=0.5;entryDx=0;entryDy=0;exitX=1;exitY=0.5;exitDx=0;exitDy=0;" edge="1" parent="1" source="ORemUjV-_kUPUwKcstXI-62" target="ORemUjV-_kUPUwKcstXI-17">
          <mxGeometry width="50" height="50" relative="1" as="geometry">
            <mxPoint x="380" y="110" as="sourcePoint" />
            <mxPoint x="380" y="150" as="targetPoint" />
          </mxGeometry>
        </mxCell>
        <mxCell id="ORemUjV-_kUPUwKcstXI-61" value="0, N" style="edgeLabel;html=1;align=center;verticalAlign=middle;resizable=0;points=[];" vertex="1" connectable="0" parent="ORemUjV-_kUPUwKcstXI-60">
          <mxGeometry x="0.2373" y="-1" relative="1" as="geometry">
            <mxPoint as="offset" />
          </mxGeometry>
        </mxCell>
        <mxCell id="ORemUjV-_kUPUwKcstXI-62" value="avoir" style="ellipse;whiteSpace=wrap;html=1;" vertex="1" parent="1">
          <mxGeometry x="340" y="110" width="50" height="30" as="geometry" />
        </mxCell>
        <mxCell id="ORemUjV-_kUPUwKcstXI-63" value="" style="endArrow=none;html=1;rounded=0;entryX=0.75;entryY=1;entryDx=0;entryDy=0;exitX=0;exitY=0.5;exitDx=0;exitDy=0;" edge="1" parent="1" source="ORemUjV-_kUPUwKcstXI-62" target="ORemUjV-_kUPUwKcstXI-27">
          <mxGeometry width="50" height="50" relative="1" as="geometry">
            <mxPoint x="320" y="210" as="sourcePoint" />
            <mxPoint x="370" y="160" as="targetPoint" />
          </mxGeometry>
        </mxCell>
        <mxCell id="ORemUjV-_kUPUwKcstXI-64" value="1, 1" style="edgeLabel;html=1;align=center;verticalAlign=middle;resizable=0;points=[];" vertex="1" connectable="0" parent="ORemUjV-_kUPUwKcstXI-63">
          <mxGeometry x="0.2006" relative="1" as="geometry">
            <mxPoint as="offset" />
          </mxGeometry>
        </mxCell>
        <mxCell id="ORemUjV-_kUPUwKcstXI-65" value="Application de trading (api comme lbank)" style="text;html=1;align=center;verticalAlign=middle;whiteSpace=wrap;rounded=0;fillColor=#fff2cc;strokeColor=#d6b656;" vertex="1" parent="1">
          <mxGeometry x="1080" y="475" width="230" height="45" as="geometry" />
        </mxCell>
      </root>
    </mxGraphModel>
  </diagram>
</mxfile>
